<svg id="visual" viewBox="0 0 900 600" width="900" height="600" xmlns="http://www.w3.org/2000/svg" xmlns:xlink="http://www.w3.org/1999/xlink" version="1.1"><rect x="0" y="0" width="900" height="600" fill="#000000"></rect><defs><linearGradient id="grad1_0" x1="33.3%" y1="100%" x2="100%" y2="0%"><stop offset="20%" stop-color="#ff0000" stop-opacity="1"></stop><stop offset="80%" stop-color="#ff0000" stop-opacity="1"></stop></linearGradient></defs><defs><linearGradient id="grad1_1" x1="33.3%" y1="100%" x2="100%" y2="0%"><stop offset="20%" stop-color="#ff0000" stop-opacity="1"></stop><stop offset="80%" stop-color="#e50000" stop-opacity="1"></stop></linearGradient></defs><defs><linearGradient id="grad1_2" x1="33.3%" y1="100%" x2="100%" y2="0%"><stop offset="20%" stop-color="#cc0000" stop-opacity="1"></stop><stop offset="80%" stop-color="#e50000" stop-opacity="1"></stop></linearGradient></defs><defs><linearGradient id="grad1_3" x1="33.3%" y1="100%" x2="100%" y2="0%"><stop offset="20%" stop-color="#cc0000" stop-opacity="1"></stop><stop offset="80%" stop-color="#b30000" stop-opacity="1"></stop></linearGradient></defs><defs><linearGradient id="grad1_4" x1="33.3%" y1="100%" x2="100%" y2="0%"><stop offset="20%" stop-color="#9a0000" stop-opacity="1"></stop><stop offset="80%" stop-color="#b30000" stop-opacity="1"></stop></linearGradient></defs><defs><linearGradient id="grad1_5" x1="33.3%" y1="100%" x2="100%" y2="0%"><stop offset="20%" stop-color="#9a0000" stop-opacity="1"></stop><stop offset="80%" stop-color="#830000" stop-opacity="1"></stop></linearGradient></defs><defs><linearGradient id="grad1_6" x1="33.3%" y1="100%" x2="100%" y2="0%"><stop offset="20%" stop-color="#6d0000" stop-opacity="1"></stop><stop offset="80%" stop-color="#830000" stop-opacity="1"></stop></linearGradient></defs><defs><linearGradient id="grad1_7" x1="33.3%" y1="100%" x2="100%" y2="0%"><stop offset="20%" stop-color="#6d0000" stop-opacity="1"></stop><stop offset="80%" stop-color="#000000" stop-opacity="1"></stop></linearGradient></defs><defs><linearGradient id="grad2_0" x1="0%" y1="100%" x2="66.7%" y2="0%"><stop offset="20%" stop-color="#ff0000" stop-opacity="1"></stop><stop offset="80%" stop-color="#ff0000" stop-opacity="1"></stop></linearGradient></defs><defs><linearGradient id="grad2_1" x1="0%" y1="100%" x2="66.7%" y2="0%"><stop offset="20%" stop-color="#e50000" stop-opacity="1"></stop><stop offset="80%" stop-color="#ff0000" stop-opacity="1"></stop></linearGradient></defs><defs><linearGradient id="grad2_2" x1="0%" y1="100%" x2="66.7%" y2="0%"><stop offset="20%" stop-color="#e50000" stop-opacity="1"></stop><stop offset="80%" stop-color="#cc0000" stop-opacity="1"></stop></linearGradient></defs><defs><linearGradient id="grad2_3" x1="0%" y1="100%" x2="66.7%" y2="0%"><stop offset="20%" stop-color="#b30000" stop-opacity="1"></stop><stop offset="80%" stop-color="#cc0000" stop-opacity="1"></stop></linearGradient></defs><defs><linearGradient id="grad2_4" x1="0%" y1="100%" x2="66.7%" y2="0%"><stop offset="20%" stop-color="#b30000" stop-opacity="1"></stop><stop offset="80%" stop-color="#9a0000" stop-opacity="1"></stop></linearGradient></defs><defs><linearGradient id="grad2_5" x1="0%" y1="100%" x2="66.7%" y2="0%"><stop offset="20%" stop-color="#830000" stop-opacity="1"></stop><stop offset="80%" stop-color="#9a0000" stop-opacity="1"></stop></linearGradient></defs><defs><linearGradient id="grad2_6" x1="0%" y1="100%" x2="66.7%" y2="0%"><stop offset="20%" stop-color="#830000" stop-opacity="1"></stop><stop offset="80%" stop-color="#6d0000" stop-opacity="1"></stop></linearGradient></defs><defs><linearGradient id="grad2_7" x1="0%" y1="100%" x2="66.7%" y2="0%"><stop offset="20%" stop-color="#000000" stop-opacity="1"></stop><stop offset="80%" stop-color="#6d0000" stop-opacity="1"></stop></linearGradient></defs><g transform="translate(900, 600)"><path d="M-297.5 0C-261.1 -9.1 -224.7 -18.1 -208.5 -25.3C-192.3 -32.5 -196.3 -37.9 -215.5 -53.1C-234.8 -68.4 -269.3 -93.6 -257.1 -97.5C-244.9 -101.4 -186 -84.1 -182.4 -95.7C-178.8 -107.4 -230.5 -148 -238.7 -164.7C-246.8 -181.5 -211.4 -174.2 -179.6 -159.1C-147.9 -144.1 -119.8 -121.1 -122 -137.7C-124.3 -154.3 -156.9 -210.4 -161.9 -234.6C-166.9 -258.7 -144.2 -250.7 -126.4 -240.8C-108.6 -230.9 -95.5 -219.1 -88.7 -233.8C-81.8 -248.4 -81 -289.7 -71.2 -288.8C-61.4 -287.9 -42.4 -244.8 -29 -239.2C-15.7 -233.7 -7.8 -265.6 0 -297.5L0 0Z" fill="#640000"></path><path d="M-260.3 0C-228.4 -7.9 -196.6 -15.8 -182.4 -22.1C-168.2 -28.4 -171.7 -33.1 -188.6 -46.5C-205.5 -59.8 -235.7 -81.9 -225 -85.3C-214.3 -88.8 -162.8 -73.6 -159.6 -83.8C-156.5 -94 -201.7 -129.5 -208.8 -144.1C-216 -158.8 -185 -152.5 -157.2 -139.3C-129.4 -126.1 -104.8 -106 -106.8 -120.5C-108.7 -135 -137.3 -184.1 -141.7 -205.2C-146 -226.3 -126.2 -219.4 -110.6 -210.7C-95 -202.1 -83.6 -191.7 -77.6 -204.5C-71.5 -217.4 -70.9 -253.5 -62.3 -252.7C-53.7 -251.9 -37.1 -214.2 -25.4 -209.3C-13.7 -204.4 -6.9 -232.4 0 -260.3L0 0Z" fill="#780000"></path><path d="M-223.1 0C-195.8 -6.8 -168.5 -13.6 -156.4 -19C-144.2 -24.4 -147.2 -28.4 -161.7 -39.8C-176.1 -51.3 -202 -70.2 -192.8 -73.1C-183.7 -76.1 -139.5 -63.1 -136.8 -71.8C-134.1 -80.5 -172.9 -111 -179 -123.6C-185.1 -136.1 -158.6 -130.7 -134.7 -119.4C-110.9 -108.1 -89.8 -90.8 -91.5 -103.3C-93.2 -115.7 -117.7 -157.8 -121.4 -175.9C-125.2 -194 -108.2 -188.1 -94.8 -180.6C-81.4 -173.2 -71.7 -164.3 -66.5 -175.3C-61.3 -186.3 -60.8 -217.3 -53.4 -216.6C-46 -215.9 -31.8 -183.6 -21.8 -179.4C-11.8 -175.2 -5.9 -199.2 0 -223.1L0 0Z" fill="#8f0000"></path><path d="M-185.9 0C-163.2 -5.7 -140.4 -11.3 -130.3 -15.8C-120.2 -20.3 -122.7 -23.7 -134.7 -33.2C-146.8 -42.7 -168.3 -58.5 -160.7 -60.9C-153.1 -63.4 -116.3 -52.6 -114 -59.8C-111.8 -67.1 -144.1 -92.5 -149.2 -103C-154.3 -113.4 -132.1 -108.9 -112.3 -99.5C-92.4 -90 -74.8 -75.7 -76.3 -86.1C-77.7 -96.4 -98.1 -131.5 -101.2 -146.6C-104.3 -161.7 -90.2 -156.7 -79 -150.5C-67.9 -144.3 -59.7 -136.9 -55.4 -146.1C-51.1 -155.3 -50.6 -181.1 -44.5 -180.5C-38.3 -179.9 -26.5 -153 -18.2 -149.5C-9.8 -146 -4.9 -166 0 -185.9L0 0Z" fill="#a60000"></path><path d="M-148.7 0C-130.5 -4.5 -112.3 -9.1 -104.2 -12.7C-96.1 -16.3 -98.1 -18.9 -107.8 -26.6C-117.4 -34.2 -134.7 -46.8 -128.6 -48.8C-122.5 -50.7 -93 -42 -91.2 -47.9C-89.4 -53.7 -115.3 -74 -119.3 -82.4C-123.4 -90.7 -105.7 -87.1 -89.8 -79.6C-73.9 -72 -59.9 -60.6 -61 -68.9C-62.1 -77.2 -78.5 -105.2 -80.9 -117.3C-83.4 -129.3 -72.1 -125.4 -63.2 -120.4C-54.3 -115.5 -47.8 -109.5 -44.3 -116.9C-40.9 -124.2 -40.5 -144.9 -35.6 -144.4C-30.7 -144 -21.2 -122.4 -14.5 -119.6C-7.8 -116.8 -3.9 -132.8 0 -148.7L0 0Z" fill="#bf0000"></path><path d="M-111.5 0C-97.9 -3.4 -84.2 -6.8 -78.2 -9.5C-72.1 -12.2 -73.6 -14.2 -80.8 -19.9C-88.1 -25.6 -101 -35.1 -96.4 -36.6C-91.8 -38 -69.8 -31.5 -68.4 -35.9C-67.1 -40.3 -86.4 -55.5 -89.5 -61.8C-92.6 -68 -79.3 -65.3 -67.4 -59.7C-55.5 -54 -44.9 -45.4 -45.8 -51.6C-46.6 -57.9 -58.8 -78.9 -60.7 -88C-62.6 -97 -54.1 -94 -47.4 -90.3C-40.7 -86.6 -35.8 -82.1 -33.2 -87.7C-30.7 -93.2 -30.4 -108.6 -26.7 -108.3C-23 -108 -15.9 -91.8 -10.9 -89.7C-5.9 -87.6 -2.9 -99.6 0 -111.5L0 0Z" fill="#d80000"></path><path d="M-74.4 0C-65.3 -2.3 -56.2 -4.5 -52.1 -6.3C-48.1 -8.1 -49.1 -9.5 -53.9 -13.3C-58.7 -17.1 -67.3 -23.4 -64.3 -24.4C-61.2 -25.4 -46.5 -21 -45.6 -23.9C-44.7 -26.8 -57.6 -37 -59.7 -41.2C-61.7 -45.4 -52.9 -43.6 -44.9 -39.8C-37 -36 -29.9 -30.3 -30.5 -34.4C-31.1 -38.6 -39.2 -52.6 -40.5 -58.6C-41.7 -64.7 -36.1 -62.7 -31.6 -60.2C-27.1 -57.7 -23.9 -54.8 -22.2 -58.4C-20.4 -62.1 -20.3 -72.4 -17.8 -72.2C-15.3 -72 -10.6 -61.2 -7.3 -59.8C-3.9 -58.4 -2 -66.4 0 -74.4L0 0Z" fill="#f20000"></path><path d="M-37.2 0C-32.6 -1.1 -28.1 -2.3 -26.1 -3.2C-24 -4.1 -24.5 -4.7 -26.9 -6.6C-29.4 -8.5 -33.7 -11.7 -32.1 -12.2C-30.6 -12.7 -23.3 -10.5 -22.8 -12C-22.4 -13.4 -28.8 -18.5 -29.8 -20.6C-30.9 -22.7 -26.4 -21.8 -22.5 -19.9C-18.5 -18 -15 -15.1 -15.3 -17.2C-15.5 -19.3 -19.6 -26.3 -20.2 -29.3C-20.9 -32.3 -18 -31.3 -15.8 -30.1C-13.6 -28.9 -11.9 -27.4 -11.1 -29.2C-10.2 -31.1 -10.1 -36.2 -8.9 -36.1C-7.7 -36 -5.3 -30.6 -3.6 -29.9C-2 -29.2 -1 -33.2 0 -37.2L0 0Z" fill="#ff0000"></path></g><g transform="translate(0, 0)"><path d="M297.5 0C279.9 11 262.3 21.9 246.2 29.9C230.1 37.9 215.4 42.8 224.3 55.3C233.2 67.8 265.6 87.8 278.1 105.5C290.7 123.2 283.4 138.6 248.8 130.6C214.2 122.6 152.2 91.2 149 102.8C145.8 114.5 201.4 169.2 205.8 182.4C210.3 195.6 163.6 167.3 141.2 159.4C118.9 151.6 120.8 164.1 115.3 167.1C109.8 170 96.8 163.3 92.9 177.1C89.1 190.9 94.4 225.1 87.2 230C80.1 234.9 60.6 210.4 48.1 195.2C35.6 179.9 30.2 174 23.4 192.6C16.5 211.2 8.3 254.3 0 297.5L0 0Z" fill="#640000"></path><path d="M260.3 0C244.9 9.6 229.5 19.2 215.4 26.2C201.3 33.1 188.5 37.5 196.3 48.4C204 59.3 232.4 76.8 243.4 92.3C254.4 107.8 248 121.3 217.7 114.3C187.4 107.3 133.1 79.8 130.3 90C127.5 100.2 176.2 148 180.1 159.6C184 171.1 143.2 146.4 123.6 139.5C104 132.6 105.7 143.6 100.9 146.2C96.1 148.7 84.7 142.9 81.3 155C77.9 167 82.6 197 76.3 201.3C70.1 205.5 53 184.1 42.1 170.8C31.2 157.4 26.4 152.2 20.5 168.5C14.5 184.8 7.2 222.5 0 260.3L0 0Z" fill="#780000"></path><path d="M223.1 0C209.9 8.2 196.7 16.5 184.6 22.4C172.6 28.4 161.6 32.1 168.2 41.5C174.9 50.8 199.2 65.8 208.6 79.1C218 92.4 212.6 103.9 186.6 97.9C160.6 91.9 114.1 68.4 111.7 77.1C109.3 85.8 151 126.9 154.4 136.8C157.7 146.7 122.7 125.5 105.9 119.6C89.2 113.7 90.6 123.1 86.5 125.3C82.3 127.5 72.6 122.5 69.7 132.8C66.8 143.2 70.8 168.9 65.4 172.5C60.1 176.2 45.4 157.8 36.1 146.4C26.7 135 22.7 130.5 17.5 144.4C12.4 158.4 6.2 190.7 0 223.1L0 0Z" fill="#8f0000"></path><path d="M185.9 0C174.9 6.9 163.9 13.7 153.9 18.7C143.8 23.7 134.6 26.8 140.2 34.6C145.7 42.4 166 54.9 173.8 65.9C181.7 77 177.2 86.6 155.5 81.6C133.9 76.6 95.1 57 93.1 64.3C91.1 71.5 125.9 105.7 128.7 114C131.4 122.2 102.3 104.6 88.3 99.6C74.3 94.7 75.5 102.6 72.1 104.4C68.6 106.2 60.5 102.1 58.1 110.7C55.7 119.3 59 140.7 54.5 143.8C50.1 146.8 37.9 131.5 30.1 122C22.3 112.5 18.9 108.7 14.6 120.4C10.3 132 5.2 159 0 185.9L0 0Z" fill="#a60000"></path><path d="M148.7 0C139.9 5.5 131.2 11 123.1 14.9C115 18.9 107.7 21.4 112.1 27.6C116.6 33.9 132.8 43.9 139.1 52.7C145.4 61.6 141.7 69.3 124.4 65.3C107.1 61.3 76.1 45.6 74.5 51.4C72.9 57.2 100.7 84.6 102.9 91.2C105.2 97.8 81.8 83.6 70.6 79.7C59.4 75.8 60.4 82.1 57.7 83.5C54.9 85 48.4 81.7 46.5 88.5C44.5 95.4 47.2 112.6 43.6 115C40.1 117.4 30.3 105.2 24.1 97.6C17.8 90 15.1 87 11.7 96.3C8.3 105.6 4.1 127.2 0 148.7L0 0Z" fill="#bf0000"></path><path d="M111.5 0C105 4.1 98.4 8.2 92.3 11.2C86.3 14.2 80.8 16.1 84.1 20.7C87.4 25.4 99.6 32.9 104.3 39.6C109 46.2 106.3 52 93.3 49C80.3 46 57.1 34.2 55.9 38.6C54.7 42.9 75.5 63.4 77.2 68.4C78.9 73.3 61.4 62.7 53 59.8C44.6 56.8 45.3 61.5 43.2 62.6C41.2 63.7 36.3 61.2 34.9 66.4C33.4 71.6 35.4 84.4 32.7 86.3C30 88.1 22.7 78.9 18 73.2C13.4 67.5 11.3 65.2 8.8 72.2C6.2 79.2 3.1 95.4 0 111.5L0 0Z" fill="#d80000"></path><path d="M74.4 0C70 2.7 65.6 5.5 61.5 7.5C57.5 9.5 53.9 10.7 56.1 13.8C58.3 16.9 66.4 21.9 69.5 26.4C72.7 30.8 70.9 34.6 62.2 32.6C53.5 30.6 38 22.8 37.2 25.7C36.4 28.6 50.3 42.3 51.5 45.6C52.6 48.9 40.9 41.8 35.3 39.9C29.7 37.9 30.2 41 28.8 41.8C27.4 42.5 24.2 40.8 23.2 44.3C22.3 47.7 23.6 56.3 21.8 57.5C20 58.7 15.1 52.6 12 48.8C8.9 45 7.6 43.5 5.8 48.1C4.1 52.8 2.1 63.6 0 74.4L0 0Z" fill="#f20000"></path><path d="M37.2 0C35 1.4 32.8 2.7 30.8 3.7C28.8 4.7 26.9 5.4 28 6.9C29.1 8.5 33.2 11 34.8 13.2C36.3 15.4 35.4 17.3 31.1 16.3C26.8 15.3 19 11.4 18.6 12.9C18.2 14.3 25.2 21.1 25.7 22.8C26.3 24.4 20.5 20.9 17.7 19.9C14.9 18.9 15.1 20.5 14.4 20.9C13.7 21.2 12.1 20.4 11.6 22.1C11.1 23.9 11.8 28.1 10.9 28.8C10 29.4 7.6 26.3 6 24.4C4.5 22.5 3.8 21.7 2.9 24.1C2.1 26.4 1 31.8 0 37.2L0 0Z" fill="#ff0000"></path></g></svg>